<svg width="220" height="45" viewBox="0 0 220 45" fill="none" xmlns="http://www.w3.org/2000/svg">
<path d="M69.616 34.32C68.4 34.32 67.2693 34.0747 66.224 33.584C65.1787 33.0933 64.3253 32.3893 63.664 31.472C63.408 31.088 63.28 30.7147 63.28 30.352C63.28 29.8187 63.4827 29.3707 63.888 29.008C64.3147 28.6453 64.7307 28.464 65.136 28.464C65.456 28.464 65.7653 28.56 66.064 28.752C66.384 28.944 66.672 29.168 66.928 29.424C67.3547 29.808 67.7707 30.0853 68.176 30.256C68.6027 30.4053 69.0827 30.48 69.616 30.48C70.256 30.48 70.8533 30.32 71.408 30C71.9627 29.68 72.4107 29.2533 72.752 28.72C73.0933 28.1867 73.264 27.6107 73.264 26.992V13.552C73.264 12.9973 73.4667 12.5387 73.872 12.176C74.2773 11.792 74.7467 11.6 75.28 11.6C75.8773 11.6 76.3573 11.792 76.72 12.176C77.0827 12.5387 77.264 12.9973 77.264 13.552V26.992C77.264 28.2933 76.9227 29.4987 76.24 30.608C75.5573 31.7173 74.64 32.6133 73.488 33.296C72.336 33.9787 71.0453 34.32 69.616 34.32ZM94.4403 16.88C94.9949 16.88 95.4536 17.072 95.8162 17.456C96.1789 17.8187 96.3603 18.2773 96.3603 18.832V26.96C96.3603 29.2213 95.7309 31.0133 94.4723 32.336C93.2136 33.6587 91.4003 34.32 89.0323 34.32C86.6643 34.32 84.8509 33.6587 83.5923 32.336C82.3549 31.0133 81.7363 29.2213 81.7363 26.96V18.832C81.7363 18.2773 81.9176 17.8187 82.2803 17.456C82.6429 17.072 83.1016 16.88 83.6562 16.88C84.2109 16.88 84.6696 17.072 85.0323 17.456C85.3949 17.8187 85.5763 18.2773 85.5763 18.832V26.96C85.5763 28.2613 85.8643 29.232 86.4403 29.872C87.0163 30.4907 87.8803 30.8 89.0323 30.8C90.2056 30.8 91.0803 30.4907 91.6563 29.872C92.2323 29.232 92.5203 28.2613 92.5203 26.96V18.832C92.5203 18.2773 92.7016 17.8187 93.0643 17.456C93.4269 17.072 93.8856 16.88 94.4403 16.88ZM99.5255 31.344C99.3122 31.0453 99.2162 30.6613 99.2375 30.192C99.2588 29.7227 99.5362 29.3173 100.07 28.976C100.411 28.7627 100.774 28.6773 101.158 28.72C101.542 28.7413 101.915 28.9333 102.278 29.296C102.896 29.9147 103.547 30.3947 104.23 30.736C104.912 31.0773 105.766 31.248 106.79 31.248C107.11 31.2267 107.462 31.184 107.845 31.12C108.23 31.0347 108.56 30.864 108.838 30.608C109.136 30.3307 109.286 29.9147 109.286 29.36C109.286 28.8907 109.126 28.5173 108.806 28.24C108.486 27.9627 108.059 27.728 107.526 27.536C107.014 27.344 106.438 27.1627 105.798 26.992C105.136 26.8 104.454 26.5867 103.75 26.352C103.067 26.1173 102.438 25.8187 101.862 25.456C101.286 25.072 100.816 24.5707 100.454 23.952C100.091 23.3333 99.9095 22.5547 99.9095 21.616C99.9095 20.5493 100.208 19.6427 100.806 18.896C101.403 18.1493 102.171 17.5733 103.11 17.168C104.07 16.7627 105.072 16.56 106.118 16.56C106.779 16.56 107.472 16.6453 108.198 16.816C108.923 16.9653 109.616 17.2213 110.278 17.584C110.939 17.9253 111.494 18.384 111.942 18.96C112.176 19.28 112.315 19.664 112.358 20.112C112.4 20.56 112.198 20.9653 111.75 21.328C111.43 21.584 111.056 21.7013 110.63 21.68C110.203 21.6373 109.851 21.488 109.574 21.232C109.211 20.7627 108.72 20.3893 108.102 20.112C107.504 19.8347 106.811 19.696 106.022 19.696C105.702 19.696 105.35 19.7387 104.966 19.824C104.603 19.888 104.283 20.048 104.006 20.304C103.728 20.5387 103.59 20.9227 103.59 21.456C103.59 21.9467 103.75 22.3413 104.07 22.64C104.39 22.9173 104.816 23.152 105.35 23.344C105.904 23.5147 106.491 23.6853 107.11 23.856C107.75 24.0267 108.4 24.2293 109.062 24.464C109.723 24.6987 110.331 25.008 110.886 25.392C111.44 25.776 111.888 26.2773 112.23 26.896C112.571 27.4933 112.742 28.2613 112.742 29.2C112.742 30.288 112.422 31.216 111.782 31.984C111.142 32.752 110.342 33.3387 109.382 33.744C108.422 34.128 107.44 34.32 106.438 34.32C105.179 34.32 103.92 34.1067 102.661 33.68C101.403 33.232 100.358 32.4533 99.5255 31.344ZM116.147 17.2H123.731C124.243 17.2 124.67 17.3707 125.011 17.712C125.352 18.0533 125.523 18.48 125.523 18.992C125.523 19.4827 125.352 19.8987 125.011 20.24C124.67 20.56 124.243 20.72 123.731 20.72H116.147C115.635 20.72 115.208 20.5493 114.867 20.208C114.526 19.8667 114.355 19.44 114.355 18.928C114.355 18.4373 114.526 18.032 114.867 17.712C115.208 17.3707 115.635 17.2 116.147 17.2ZM119.571 13.2C120.126 13.2 120.574 13.392 120.915 13.776C121.278 14.1387 121.459 14.5973 121.459 15.152V29.392C121.459 29.6907 121.512 29.936 121.619 30.128C121.747 30.32 121.907 30.4587 122.099 30.544C122.312 30.6293 122.536 30.672 122.771 30.672C123.027 30.672 123.262 30.6293 123.475 30.544C123.688 30.4373 123.934 30.384 124.211 30.384C124.51 30.384 124.776 30.5227 125.011 30.8C125.267 31.0773 125.395 31.4613 125.395 31.952C125.395 32.5493 125.064 33.04 124.403 33.424C123.763 33.808 123.07 34 122.323 34C121.875 34 121.374 33.968 120.819 33.904C120.286 33.8187 119.774 33.6373 119.283 33.36C118.814 33.0613 118.419 32.6133 118.099 32.016C117.779 31.4187 117.619 30.5973 117.619 29.552V15.152C117.619 14.5973 117.8 14.1387 118.163 13.776C118.547 13.392 119.016 13.2 119.571 13.2ZM140.29 11.6H151.01C151.564 11.6 152.023 11.7813 152.385 12.144C152.77 12.4853 152.962 12.9333 152.962 13.488C152.962 14.0213 152.77 14.4587 152.385 14.8C152.023 15.12 151.564 15.28 151.01 15.28H142.05L142.338 14.736V20.976L142.082 20.72H149.57C150.124 20.72 150.583 20.9013 150.946 21.264C151.33 21.6053 151.522 22.0533 151.522 22.608C151.522 23.1413 151.33 23.5787 150.946 23.92C150.583 24.24 150.124 24.4 149.57 24.4H142.178L142.338 24.144V30.608L142.082 30.32H151.01C151.564 30.32 152.023 30.512 152.385 30.896C152.77 31.2587 152.962 31.6853 152.962 32.176C152.962 32.7093 152.77 33.1467 152.385 33.488C152.023 33.8293 151.564 34 151.01 34H140.29C139.735 34 139.266 33.8187 138.882 33.456C138.519 33.072 138.338 32.6027 138.338 32.048V13.552C138.338 12.9973 138.519 12.5387 138.882 12.176C139.266 11.792 139.735 11.6 140.29 11.6ZM156.682 16.88C157.301 16.88 157.823 17.1467 158.25 17.68L168.938 30.96C169.215 31.3013 169.354 31.6853 169.354 32.112C169.354 32.6453 169.151 33.104 168.746 33.488C168.341 33.872 167.893 34.064 167.402 34.064C166.783 34.064 166.261 33.7867 165.834 33.232L155.146 19.952C154.869 19.6107 154.73 19.2267 154.73 18.8C154.73 18.2453 154.922 17.7867 155.306 17.424C155.711 17.0613 156.17 16.88 156.682 16.88ZM156.714 34.032C156.287 34.032 155.861 33.872 155.434 33.552C155.029 33.2107 154.826 32.8053 154.826 32.336C154.826 31.9093 154.986 31.504 155.306 31.12L160.202 25.136L162.122 28.336L158.25 33.232C157.845 33.7653 157.333 34.032 156.714 34.032ZM167.37 16.88C167.882 16.88 168.309 17.0613 168.65 17.424C169.013 17.7653 169.194 18.16 169.194 18.608C169.194 18.8213 169.162 19.0347 169.098 19.248C169.034 19.4613 168.917 19.664 168.746 19.856L163.914 25.744L161.898 22.96L165.834 17.744C166.261 17.168 166.773 16.88 167.37 16.88ZM185.94 16.56C186.494 16.56 186.953 16.7413 187.316 17.104C187.678 17.4667 187.86 17.936 187.86 18.512V32.048C187.86 32.6027 187.678 33.072 187.316 33.456C186.953 33.8187 186.494 34 185.94 34C185.385 34 184.926 33.8187 184.564 33.456C184.201 33.072 184.02 32.6027 184.02 32.048V30.48L184.724 30.768C184.724 31.0453 184.574 31.3867 184.276 31.792C183.977 32.176 183.572 32.56 183.06 32.944C182.548 33.328 181.94 33.6587 181.236 33.936C180.553 34.192 179.806 34.32 178.996 34.32C177.524 34.32 176.19 33.9467 174.996 33.2C173.801 32.432 172.852 31.3867 172.148 30.064C171.465 28.72 171.124 27.184 171.124 25.456C171.124 23.7067 171.465 22.1707 172.148 20.848C172.852 19.504 173.79 18.4587 174.964 17.712C176.137 16.944 177.438 16.56 178.868 16.56C179.785 16.56 180.628 16.6987 181.396 16.976C182.164 17.2533 182.825 17.6053 183.38 18.032C183.956 18.4587 184.393 18.896 184.692 19.344C185.012 19.7707 185.172 20.1333 185.172 20.432L184.02 20.848V18.512C184.02 17.9573 184.201 17.4987 184.564 17.136C184.926 16.752 185.385 16.56 185.94 16.56ZM179.476 30.8C180.414 30.8 181.236 30.5653 181.94 30.096C182.644 29.6267 183.188 28.9867 183.572 28.176C183.977 27.3653 184.18 26.4587 184.18 25.456C184.18 24.432 183.977 23.5147 183.572 22.704C183.188 21.8933 182.644 21.2533 181.94 20.784C181.236 20.3147 180.414 20.08 179.476 20.08C178.558 20.08 177.748 20.3147 177.044 20.784C176.34 21.2533 175.785 21.8933 175.38 22.704C174.996 23.5147 174.804 24.432 174.804 25.456C174.804 26.4587 174.996 27.3653 175.38 28.176C175.785 28.9867 176.34 29.6267 177.044 30.096C177.748 30.5653 178.558 30.8 179.476 30.8ZM201.01 16.56C202.716 16.56 203.975 16.976 204.786 17.808C205.596 18.6187 206.13 19.6747 206.385 20.976L205.842 20.688L206.097 20.176C206.354 19.6853 206.748 19.1627 207.282 18.608C207.815 18.032 208.455 17.552 209.202 17.168C209.97 16.7627 210.823 16.56 211.762 16.56C213.298 16.56 214.46 16.8907 215.25 17.552C216.06 18.2133 216.615 19.0987 216.914 20.208C217.212 21.296 217.362 22.512 217.362 23.856V32.048C217.362 32.6027 217.18 33.072 216.818 33.456C216.455 33.8187 215.996 34 215.442 34C214.887 34 214.428 33.8187 214.066 33.456C213.703 33.072 213.522 32.6027 213.522 32.048V23.856C213.522 23.152 213.436 22.5227 213.266 21.968C213.095 21.392 212.786 20.9333 212.338 20.592C211.89 20.2507 211.25 20.08 210.418 20.08C209.607 20.08 208.914 20.2507 208.338 20.592C207.762 20.9333 207.324 21.392 207.026 21.968C206.748 22.5227 206.61 23.152 206.61 23.856V32.048C206.61 32.6027 206.428 33.072 206.066 33.456C205.703 33.8187 205.244 34 204.69 34C204.135 34 203.676 33.8187 203.314 33.456C202.951 33.072 202.77 32.6027 202.77 32.048V23.856C202.77 23.152 202.684 22.5227 202.514 21.968C202.343 21.392 202.034 20.9333 201.586 20.592C201.138 20.2507 200.498 20.08 199.666 20.08C198.855 20.08 198.162 20.2507 197.586 20.592C197.01 20.9333 196.572 21.392 196.274 21.968C195.996 22.5227 195.858 23.152 195.858 23.856V32.048C195.858 32.6027 195.676 33.072 195.314 33.456C194.951 33.8187 194.492 34 193.938 34C193.383 34 192.924 33.8187 192.562 33.456C192.199 33.072 192.018 32.6027 192.018 32.048V18.832C192.018 18.2773 192.199 17.8187 192.562 17.456C192.924 17.072 193.383 16.88 193.938 16.88C194.492 16.88 194.951 17.072 195.314 17.456C195.676 17.8187 195.858 18.2773 195.858 18.832V20.208L195.378 20.112C195.57 19.7493 195.836 19.3653 196.178 18.96C196.519 18.5333 196.935 18.1387 197.426 17.776C197.916 17.4133 198.46 17.1253 199.058 16.912C199.655 16.6773 200.306 16.56 201.01 16.56Z" fill="#3F454C"/>
<rect width="13.3225" height="13.3225" rx="2" fill="#3F454C"/>
<rect x="15.3292" width="13.3225" height="13.3225" rx="2" fill="#3F454C"/>
<rect y="15.8203" width="13.3225" height="13.3225" rx="2" fill="#3F454C"/>
<rect x="31.6782" y="15.3281" width="13.3225" height="13.3225" rx="2" fill="#EF7F4E"/>
<rect x="15.8206" y="31.6406" width="13.3225" height="13.3225" rx="2" fill="#3F454C"/>
<rect x="31.6402" y="31.6406" width="13.3225" height="13.3225" rx="2" fill="#3F454C"/>
</svg>
